<svg width="21" height="21" viewBox="0 0 21 21" fill="none" xmlns="http://www.w3.org/2000/svg">
<path d="M8.41658 11.5416H1.12492C0.848651 11.5416 0.583699 11.6514 0.388349 11.8467C0.192999 12.0421 0.083252 12.307 0.083252 12.5833V19.875C0.083252 20.1512 0.192999 20.4162 0.388349 20.6115C0.583699 20.8069 0.848651 20.9166 1.12492 20.9166H8.41658C8.69285 20.9166 8.9578 20.8069 9.15315 20.6115C9.3485 20.4162 9.45825 20.1512 9.45825 19.875V12.5833C9.45825 12.307 9.3485 12.0421 9.15315 11.8467C8.9578 11.6514 8.69285 11.5416 8.41658 11.5416ZM7.37492 18.8333H2.16659V13.625H7.37492V18.8333ZM19.8749 0.083313H12.5833C12.307 0.083313 12.042 0.19306 11.8467 0.38841C11.6513 0.58376 11.5416 0.848712 11.5416 1.12498V8.41665C11.5416 8.69291 11.6513 8.95786 11.8467 9.15322C12.042 9.34857 12.307 9.45831 12.5833 9.45831H19.8749C20.1512 9.45831 20.4161 9.34857 20.6115 9.15322C20.8068 8.95786 20.9166 8.69291 20.9166 8.41665V1.12498C20.9166 0.848712 20.8068 0.58376 20.6115 0.38841C20.4161 0.19306 20.1512 0.083313 19.8749 0.083313ZM18.8333 7.37498H13.6249V2.16665H18.8333V7.37498ZM19.8749 11.5416H12.5833C12.307 11.5416 12.042 11.6514 11.8467 11.8467C11.6513 12.0421 11.5416 12.307 11.5416 12.5833V19.875C11.5416 20.1512 11.6513 20.4162 11.8467 20.6115C12.042 20.8069 12.307 20.9166 12.5833 20.9166H19.8749C20.1512 20.9166 20.4161 20.8069 20.6115 20.6115C20.8068 20.4162 20.9166 20.1512 20.9166 19.875V12.5833C20.9166 12.307 20.8068 12.0421 20.6115 11.8467C20.4161 11.6514 20.1512 11.5416 19.8749 11.5416ZM18.8333 18.8333H13.6249V13.625H18.8333V18.8333ZM8.41658 0.083313H1.12492C0.848651 0.083313 0.583699 0.19306 0.388349 0.38841C0.192999 0.58376 0.083252 0.848712 0.083252 1.12498V8.41665C0.083252 8.69291 0.192999 8.95786 0.388349 9.15322C0.583699 9.34857 0.848651 9.45831 1.12492 9.45831H8.41658C8.69285 9.45831 8.9578 9.34857 9.15315 9.15322C9.3485 8.95786 9.45825 8.69291 9.45825 8.41665V1.12498C9.45825 0.848712 9.3485 0.58376 9.15315 0.38841C8.9578 0.19306 8.69285 0.083313 8.41658 0.083313ZM7.37492 7.37498H2.16659V2.16665H7.37492V7.37498Z" fill="white"/>
</svg>
