<svg width="45" height="45" viewBox="0 0 45 45" fill="none" xmlns="http://www.w3.org/2000/svg">
<path d="M14.5313 4.6875C14.5313 4.31454 14.3831 3.95685 14.1194 3.69313C13.8557 3.42941 13.498 3.28125 13.125 3.28125C12.752 3.28125 12.3944 3.42941 12.1306 3.69313C11.8669 3.95685 11.7188 4.31454 11.7188 4.6875V7.65C9.01876 7.86562 7.24876 8.39437 5.94751 9.6975C4.64438 10.9987 4.11563 12.7706 3.89813 15.4688H41.1019C40.8844 12.7687 40.3556 10.9987 39.0525 9.6975C37.7513 8.39437 35.9794 7.86562 33.2813 7.64812V4.6875C33.2813 4.31454 33.1331 3.95685 32.8694 3.69313C32.6057 3.42941 32.248 3.28125 31.875 3.28125C31.502 3.28125 31.1444 3.42941 30.8806 3.69313C30.6169 3.95685 30.4688 4.31454 30.4688 4.6875V7.52438C29.2219 7.5 27.8231 7.5 26.25 7.5H18.75C17.1769 7.5 15.7781 7.5 14.5313 7.52438V4.6875Z" fill="white"/>
<path fill-rule="evenodd" clip-rule="evenodd" d="M3.75 22.5C3.75 20.9269 3.75 19.5281 3.77438 18.2812H41.2256C41.25 19.5281 41.25 20.9269 41.25 22.5V26.25C41.25 33.3206 41.25 36.8569 39.0525 39.0525C36.8569 41.25 33.3206 41.25 26.25 41.25H18.75C11.6794 41.25 8.14312 41.25 5.9475 39.0525C3.75 36.8569 3.75 33.3206 3.75 26.25V22.5ZM31.875 26.25C32.3723 26.25 32.8492 26.0525 33.2008 25.7008C33.5525 25.3492 33.75 24.8723 33.75 24.375C33.75 23.8777 33.5525 23.4008 33.2008 23.0492C32.8492 22.6975 32.3723 22.5 31.875 22.5C31.3777 22.5 30.9008 22.6975 30.5492 23.0492C30.1975 23.4008 30 23.8777 30 24.375C30 24.8723 30.1975 25.3492 30.5492 25.7008C30.9008 26.0525 31.3777 26.25 31.875 26.25ZM31.875 33.75C32.3723 33.75 32.8492 33.5525 33.2008 33.2008C33.5525 32.8492 33.75 32.3723 33.75 31.875C33.75 31.3777 33.5525 30.9008 33.2008 30.5492C32.8492 30.1975 32.3723 30 31.875 30C31.3777 30 30.9008 30.1975 30.5492 30.5492C30.1975 30.9008 30 31.3777 30 31.875C30 32.3723 30.1975 32.8492 30.5492 33.2008C30.9008 33.5525 31.3777 33.75 31.875 33.75ZM24.375 24.375C24.375 24.8723 24.1775 25.3492 23.8258 25.7008C23.4742 26.0525 22.9973 26.25 22.5 26.25C22.0027 26.25 21.5258 26.0525 21.1742 25.7008C20.8225 25.3492 20.625 24.8723 20.625 24.375C20.625 23.8777 20.8225 23.4008 21.1742 23.0492C21.5258 22.6975 22.0027 22.5 22.5 22.5C22.9973 22.5 23.4742 22.6975 23.8258 23.0492C24.1775 23.4008 24.375 23.8777 24.375 24.375ZM24.375 31.875C24.375 32.3723 24.1775 32.8492 23.8258 33.2008C23.4742 33.5525 22.9973 33.75 22.5 33.75C22.0027 33.75 21.5258 33.5525 21.1742 33.2008C20.8225 32.8492 20.625 32.3723 20.625 31.875C20.625 31.3777 20.8225 30.9008 21.1742 30.5492C21.5258 30.1975 22.0027 30 22.5 30C22.9973 30 23.4742 30.1975 23.8258 30.5492C24.1775 30.9008 24.375 31.3777 24.375 31.875ZM13.125 26.25C13.6223 26.25 14.0992 26.0525 14.4508 25.7008C14.8025 25.3492 15 24.8723 15 24.375C15 23.8777 14.8025 23.4008 14.4508 23.0492C14.0992 22.6975 13.6223 22.5 13.125 22.5C12.6277 22.5 12.1508 22.6975 11.7992 23.0492C11.4475 23.4008 11.25 23.8777 11.25 24.375C11.25 24.8723 11.4475 25.3492 11.7992 25.7008C12.1508 26.0525 12.6277 26.25 13.125 26.25ZM13.125 33.75C13.6223 33.75 14.0992 33.5525 14.4508 33.2008C14.8025 32.8492 15 32.3723 15 31.875C15 31.3777 14.8025 30.9008 14.4508 30.5492C14.0992 30.1975 13.6223 30 13.125 30C12.6277 30 12.1508 30.1975 11.7992 30.5492C11.4475 30.9008 11.25 31.3777 11.25 31.875C11.25 32.3723 11.4475 32.8492 11.7992 33.2008C12.1508 33.5525 12.6277 33.75 13.125 33.75Z" fill="white"/>
</svg>
