<svg width="45" height="45" viewBox="0 0 45 45" fill="none" xmlns="http://www.w3.org/2000/svg">
<path d="M5.625 32.3438V39.375H12.6562L33.3937 18.6375L26.3625 11.6063L5.625 32.3438ZM38.8312 13.2C39.0051 13.0265 39.143 12.8205 39.2371 12.5937C39.3311 12.3669 39.3796 12.1237 39.3796 11.8781C39.3796 11.6326 39.3311 11.3894 39.2371 11.1626C39.143 10.9358 39.0051 10.7297 38.8312 10.5563L34.4438 6.16875C34.2703 5.99494 34.0642 5.85703 33.8374 5.76294C33.6106 5.66885 33.3674 5.62042 33.1219 5.62042C32.8763 5.62042 32.6332 5.66885 32.4063 5.76294C32.1795 5.85703 31.9735 5.99494 31.8 6.16875L28.3688 9.6L35.4 16.6313L38.8312 13.2Z" fill="white"/>
</svg>
