<svg width="19" height="20" viewBox="0 0 19 20" fill="none" xmlns="http://www.w3.org/2000/svg">
<path fill-rule="evenodd" clip-rule="evenodd" d="M0.125 1.6875C0.125 1.2731 0.28962 0.875671 0.582646 0.582646C0.875671 0.28962 1.2731 0.125 1.6875 0.125H17.3125C17.7269 0.125 18.1243 0.28962 18.4174 0.582646C18.7104 0.875671 18.875 1.2731 18.875 1.6875V3.86042C18.8749 4.41291 18.6553 4.94272 18.2646 5.33333L12.625 10.9729V18.7062C12.625 18.9016 12.5751 19.0937 12.48 19.2643C12.3849 19.4349 12.2478 19.5784 12.0816 19.6811C11.9154 19.7838 11.7258 19.8423 11.5307 19.8511C11.3355 19.8599 11.1414 19.8186 10.9667 19.7312L7.09479 17.7958C6.87851 17.6877 6.69661 17.5215 6.56948 17.3158C6.44235 17.1101 6.37501 16.8731 6.375 16.6313V10.9729L0.735417 5.33333C0.344689 4.94272 0.125118 4.41291 0.125 3.86042V1.6875Z" fill="white"/>
</svg>
