<svg width="45" height="45" viewBox="0 0 45 45" fill="none" xmlns="http://www.w3.org/2000/svg">
<path d="M32.3398 28.871C30.2939 30.9168 27.6987 33.357 24.5507 36.1934C24.5502 36.1938 24.5498 36.1942 24.5494 36.1946L22.5 38.0319L20.4506 36.1946C20.4502 36.1942 20.4498 36.1938 20.4493 36.1934C17.3013 33.357 14.706 30.9168 12.6602 28.871C10.619 26.8298 9.0143 25.0157 7.8341 23.4263L7.83389 23.426C6.65296 21.8369 5.86084 20.4188 5.42082 19.1681C4.974 17.8981 4.7512 16.6038 4.75 15.2808C4.7501 12.5925 5.64029 10.3989 7.41023 8.62898C9.18027 6.85894 11.374 5.96875 14.0625 5.96875C15.5413 5.96875 16.9434 6.28044 18.2792 6.90569C19.6165 7.53168 20.7673 8.41184 21.7381 9.5539L22.5 10.4503L23.2619 9.5539C24.2327 8.41184 25.3835 7.53168 26.7208 6.90569C28.0566 6.28044 29.4587 5.96875 30.9375 5.96875C33.626 5.96875 35.8197 6.85894 37.5898 8.62898C39.3598 10.399 40.25 12.5927 40.25 15.2812C40.25 16.6041 40.0278 17.8982 39.5811 19.1681C39.1411 20.4186 38.3485 21.8366 37.1664 23.4256L37.1659 23.4263C35.9857 25.0157 34.381 26.8298 32.3398 28.871Z" stroke="#E62323" stroke-width="2"/>
</svg>
