<svg width="25" height="25" viewBox="0 0 25 25" fill="none" xmlns="http://www.w3.org/2000/svg">
<path d="M21.875 20.8333C21.875 21.1096 21.7653 21.3745 21.5699 21.5699C21.3746 21.7652 21.1096 21.875 20.8333 21.875H4.16667C3.8904 21.875 3.62545 21.7652 3.4301 21.5699C3.23475 21.3745 3.125 21.1096 3.125 20.8333V9.88436C3.12489 9.72562 3.16106 9.56896 3.23075 9.42634C3.30043 9.28371 3.40179 9.15891 3.52708 9.06144L11.8604 2.58019C12.0433 2.43795 12.2683 2.36072 12.5 2.36072C12.7317 2.36072 12.9567 2.43795 13.1396 2.58019L21.4729 9.06144C21.5982 9.15891 21.6996 9.28371 21.7693 9.42634C21.8389 9.56896 21.8751 9.72562 21.875 9.88436V20.8333Z" fill="white"/>
</svg>
