<svg width="45" height="45" viewBox="0 0 45 45" fill="none" xmlns="http://www.w3.org/2000/svg">
<path d="M22.5 2.8125C18.6062 2.8125 14.7998 3.96715 11.5622 6.13044C8.32463 8.29373 5.80123 11.3685 4.31113 14.9659C2.82103 18.5633 2.43115 22.5218 3.1908 26.3408C3.95045 30.1598 5.8255 33.6678 8.57884 36.4212C11.3322 39.1745 14.8402 41.0496 18.6592 41.8092C22.4782 42.5689 26.4367 42.179 30.0341 40.6889C33.6315 39.1988 36.7063 36.6754 38.8696 33.4378C41.0329 30.2002 42.1875 26.3938 42.1875 22.5C42.1875 17.2786 40.1133 12.271 36.4212 8.57883C32.729 4.88671 27.7215 2.8125 22.5 2.8125ZM32.9724 23.7586L16.0974 32.1961C15.8829 32.3033 15.6446 32.3538 15.4051 32.343C15.1656 32.3321 14.9329 32.2602 14.729 32.1341C14.5251 32.008 14.3569 31.8319 14.2402 31.6224C14.1236 31.413 14.0624 31.1772 14.0625 30.9375V14.0625C14.0626 13.8229 14.124 13.5873 14.2407 13.378C14.3575 13.1688 14.5258 12.9929 14.7296 12.8669C14.9335 12.741 15.1661 12.6692 15.4055 12.6584C15.6449 12.6476 15.883 12.6982 16.0974 12.8053L32.9724 21.2428C33.2056 21.3597 33.4018 21.5392 33.5388 21.7613C33.6759 21.9833 33.7485 22.2391 33.7485 22.5C33.7485 22.7609 33.6759 23.0167 33.5388 23.2387C33.4018 23.4608 33.2056 23.6403 32.9724 23.7572V23.7586Z" fill="white"/>
</svg>
