<svg width="20" height="20" viewBox="0 0 20 20" fill="none" xmlns="http://www.w3.org/2000/svg">
<path fill-rule="evenodd" clip-rule="evenodd" d="M8.9374 0.083313C7.52551 0.0834333 6.13413 0.421192 4.87933 1.06841C3.62453 1.71563 2.5427 2.65354 1.7241 3.80389C0.905501 4.95424 0.373866 6.28367 0.173552 7.68127C-0.0267618 9.07888 0.110053 10.5041 0.572584 11.8381C1.03511 13.1721 1.80995 14.3761 2.83244 15.3497C3.85493 16.3233 5.09542 17.0383 6.45043 17.435C7.80544 17.8317 9.23567 17.8986 10.6218 17.6301C12.0079 17.3616 13.3097 16.7656 14.4186 15.8916L18.2228 19.6958C18.4193 19.8856 18.6824 19.9906 18.9555 19.9882C19.2286 19.9858 19.4899 19.8763 19.683 19.6831C19.8762 19.49 19.9857 19.2287 19.9881 18.9556C19.9905 18.6825 19.8855 18.4194 19.6957 18.2229L15.8916 14.4187C16.9207 13.1131 17.5615 11.5441 17.7406 9.89136C17.9197 8.23857 17.6299 6.56875 16.9043 5.07299C16.1787 3.57724 15.0467 2.31598 13.6377 1.43355C12.2288 0.551132 10.5999 0.0832014 8.9374 0.083313ZM2.16656 8.93748C2.16656 7.14174 2.87992 5.41955 4.1497 4.14978C5.41947 2.88 7.14166 2.16665 8.9374 2.16665C10.7331 2.16665 12.4553 2.88 13.7251 4.14978C14.9949 5.41955 15.7082 7.14174 15.7082 8.93748C15.7082 10.7332 14.9949 12.4554 13.7251 13.7252C12.4553 14.995 10.7331 15.7083 8.9374 15.7083C7.14166 15.7083 5.41947 14.995 4.1497 13.7252C2.87992 12.4554 2.16656 10.7332 2.16656 8.93748Z" fill="white"/>
</svg>
