<svg width="45" height="45" viewBox="0 0 45 45" fill="none" xmlns="http://www.w3.org/2000/svg">
<path d="M22.501 31.2132L23.0175 31.5256L30.7988 36.2318L30.799 36.232C31.4631 36.6339 32.2762 36.0442 32.1011 35.2895L22.501 31.2132ZM22.501 31.2132L21.984 31.5247L14.2027 36.2122L14.2009 36.2132C13.5367 36.6153 12.7234 36.0252 12.899 35.2703L14.9614 26.4207L15.0983 25.8331L14.6423 25.438L7.76109 19.4755L7.76073 19.4752C7.17102 18.9647 7.49446 18.0073 8.25428 17.9468L8.25428 17.9469L8.25957 17.9464L17.3158 17.1777L17.9161 17.1267L18.1517 16.5722L21.6954 8.22841L21.6954 8.22841L21.697 8.22453C21.9915 7.52306 23.0085 7.52306 23.3029 8.22453L23.3042 8.22767L26.848 16.5902L27.0833 17.1454L27.6842 17.1964L36.7404 17.9652L36.7457 17.9656C37.5055 18.026 37.8289 18.9834 37.2392 19.4939L37.2389 19.4942L30.3576 25.4567L29.9016 25.8518L30.0386 26.4395L32.101 35.289L22.501 31.2132ZM31.0125 26.2125L37.8937 20.25L33.075 35.0625L31.0125 26.2125Z" stroke="#F9F871" stroke-width="2"/>
</svg>
