<svg width="45" height="45" viewBox="0 0 45 45" fill="none" xmlns="http://www.w3.org/2000/svg">
<path d="M22.5 4.21875C12.404 4.21875 4.21875 12.404 4.21875 22.5C4.21875 32.596 12.404 40.7812 22.5 40.7812C32.596 40.7812 40.7812 32.596 40.7812 22.5C40.7812 12.404 32.596 4.21875 22.5 4.21875ZM30.9375 25.3125H22.5C22.127 25.3125 21.7694 25.1643 21.5056 24.9006C21.2419 24.6369 21.0938 24.2792 21.0938 23.9062V11.25C21.0938 10.877 21.2419 10.5194 21.5056 10.2556C21.7694 9.99191 22.127 9.84375 22.5 9.84375C22.873 9.84375 23.2306 9.99191 23.4944 10.2556C23.7581 10.5194 23.9062 10.877 23.9062 11.25V22.5H30.9375C31.3105 22.5 31.6681 22.6482 31.9319 22.9119C32.1956 23.1756 32.3438 23.5333 32.3438 23.9062C32.3438 24.2792 32.1956 24.6369 31.9319 24.9006C31.6681 25.1643 31.3105 25.3125 30.9375 25.3125Z" fill="white"/>
</svg>
