<svg width="45" height="45" viewBox="0 0 45 45" fill="none" xmlns="http://www.w3.org/2000/svg">
<path d="M37.9688 8.4375H30.9375V7.03125C30.9375 5.91237 30.493 4.83931 29.7019 4.04814C28.9107 3.25697 27.8376 2.8125 26.7188 2.8125H18.2812C17.1624 2.8125 16.0893 3.25697 15.2981 4.04814C14.507 4.83931 14.0625 5.91237 14.0625 7.03125V8.4375H7.03125C6.65829 8.4375 6.3006 8.58566 6.03688 8.84938C5.77316 9.1131 5.625 9.47079 5.625 9.84375C5.625 10.2167 5.77316 10.5744 6.03688 10.8381C6.3006 11.1018 6.65829 11.25 7.03125 11.25H8.4375V36.5625C8.4375 37.3084 8.73382 38.0238 9.26126 38.5512C9.78871 39.0787 10.5041 39.375 11.25 39.375H33.75C34.4959 39.375 35.2113 39.0787 35.7387 38.5512C36.2662 38.0238 36.5625 37.3084 36.5625 36.5625V11.25H37.9688C38.3417 11.25 38.6994 11.1018 38.9631 10.8381C39.2268 10.5744 39.375 10.2167 39.375 9.84375C39.375 9.47079 39.2268 9.1131 38.9631 8.84938C38.6994 8.58566 38.3417 8.4375 37.9688 8.4375ZM19.6875 29.5312C19.6875 29.9042 19.5393 30.2619 19.2756 30.5256C19.0119 30.7893 18.6542 30.9375 18.2812 30.9375C17.9083 30.9375 17.5506 30.7893 17.2869 30.5256C17.0232 30.2619 16.875 29.9042 16.875 29.5312V18.2812C16.875 17.9083 17.0232 17.5506 17.2869 17.2869C17.5506 17.0232 17.9083 16.875 18.2812 16.875C18.6542 16.875 19.0119 17.0232 19.2756 17.2869C19.5393 17.5506 19.6875 17.9083 19.6875 18.2812V29.5312ZM28.125 29.5312C28.125 29.9042 27.9768 30.2619 27.7131 30.5256C27.4494 30.7893 27.0917 30.9375 26.7188 30.9375C26.3458 30.9375 25.9881 30.7893 25.7244 30.5256C25.4607 30.2619 25.3125 29.9042 25.3125 29.5312V18.2812C25.3125 17.9083 25.4607 17.5506 25.7244 17.2869C25.9881 17.0232 26.3458 16.875 26.7188 16.875C27.0917 16.875 27.4494 17.0232 27.7131 17.2869C27.9768 17.5506 28.125 17.9083 28.125 18.2812V29.5312ZM28.125 8.4375H16.875V7.03125C16.875 6.65829 17.0232 6.3006 17.2869 6.03688C17.5506 5.77316 17.9083 5.625 18.2812 5.625H26.7188C27.0917 5.625 27.4494 5.77316 27.7131 6.03688C27.9768 6.3006 28.125 6.65829 28.125 7.03125V8.4375Z" fill="white"/>
</svg>
